<svg width="892" height="746" viewBox="0 0 892 746" fill="none" xmlns="http://www.w3.org/2000/svg">
<g id="undraw_chatting_re_j55r 1" clip-path="url(#clip0_2_2)">
<path id="shadow" d="M418.644 745.194C613.048 745.194 770.644 737.135 770.644 727.194C770.644 717.253 613.048 709.194 418.644 709.194C224.239 709.194 66.6436 717.253 66.6436 727.194C66.6436 737.135 224.239 745.194 418.644 745.194Z" fill="#F2F2F2"/>
<path id="Vector" d="M624.297 172.947H620.298V63.4019C620.298 46.5867 613.619 30.4602 601.728 18.57C589.838 6.67985 573.712 1.85653e-05 556.897 1.13715e-10H324.81C307.995 -3.18259e-05 291.868 6.67975 279.978 18.5699C268.088 30.46 261.408 46.5865 261.408 63.4017V664.376C261.408 681.191 268.088 697.318 279.978 709.208C291.868 721.098 307.994 727.778 324.81 727.778H556.896C573.711 727.778 589.838 721.098 601.728 709.208C613.618 697.318 620.298 681.192 620.298 664.376V250.923H624.297L624.297 172.947Z" fill="#3F3D56"/>
<path id="Vector_2" d="M606.803 63.8443V663.934C606.803 676.492 601.815 688.536 592.935 697.416C584.055 706.295 572.011 711.284 559.454 711.284H326.253C313.696 711.284 301.652 706.295 292.772 697.416C283.892 688.536 278.904 676.492 278.904 663.934V63.8443C278.904 51.2864 283.892 39.2428 292.772 30.363C301.652 21.4832 313.696 16.4945 326.253 16.4943H354.543C353.153 19.9103 352.624 23.6155 353.002 27.2841C353.38 30.9526 354.654 34.4721 356.711 37.533C358.768 40.5938 361.546 43.1021 364.8 44.8374C368.055 46.5726 371.686 47.4816 375.374 47.4843H508.333C512.021 47.4815 515.652 46.5726 518.907 44.8373C522.161 43.1021 524.939 40.5937 526.996 37.5329C529.053 34.4721 530.327 30.9526 530.705 27.284C531.083 23.6155 530.554 19.9103 529.163 16.4943H559.454C572.011 16.4945 584.055 21.4832 592.935 30.363C601.815 39.2428 606.803 51.2864 606.803 63.8443V63.8443Z" fill="white"/>
<g id="user1">
<path id="Vector_3" d="M531.678 322.6C530.127 323.41 528.551 324.177 526.947 324.9C525.487 325.56 524.004 326.18 522.498 326.76C521.947 326.97 521.388 327.18 520.828 327.39C516.4 328.996 511.853 330.25 507.228 331.14C504.938 331.59 502.618 331.944 500.268 332.2C498.328 332.42 496.368 332.577 494.388 332.67C492.978 332.74 491.567 332.77 490.147 332.77C484.524 332.773 478.913 332.247 473.388 331.2C471.947 330.94 470.538 330.63 469.127 330.29C462.307 328.656 455.704 326.219 449.457 323.03C448.897 322.75 448.337 322.45 447.777 322.16C446.947 321.72 446.138 321.26 445.328 320.78C445.717 320.24 446.138 319.71 446.567 319.19C451.247 313.391 457.095 308.644 463.732 305.257C470.369 301.869 477.646 299.919 485.087 299.532C492.528 299.145 499.968 300.331 506.92 303.011C513.873 305.692 520.182 309.808 525.437 315.09C527.262 316.921 528.952 318.879 530.498 320.95C530.907 321.49 531.297 322.04 531.678 322.6Z" fill="#22C55E"/>
<path id="Vector_4" d="M492.143 278.673C516.394 278.673 536.053 259.014 536.053 234.764C536.053 210.513 516.394 190.854 492.143 190.854C467.893 190.854 448.234 210.513 448.234 234.764C448.234 259.014 467.893 278.673 492.143 278.673Z" fill="#2F2E41"/>
<path id="Vector_5" d="M503.822 278.735C519.659 270.078 525.48 250.221 516.822 234.384C508.165 218.546 488.308 212.726 472.471 221.383C456.633 230.041 450.813 249.898 459.47 265.735C468.128 281.572 487.985 287.393 503.822 278.735Z" fill="#A0616A"/>
<path id="Vector_6" d="M522.486 229.503C515.018 234.65 506.154 237.39 497.084 237.353C500.32 239.597 504.003 241.112 507.88 241.795C495.821 244.382 483.358 244.452 471.27 242.001C468.583 241.57 465.991 240.679 463.606 239.368C462.418 238.705 461.383 237.799 460.568 236.709C459.753 235.619 459.176 234.369 458.876 233.042C458.073 228.453 461.648 224.284 465.364 221.475C471.053 217.239 477.612 214.32 484.568 212.93C491.523 211.541 498.7 211.714 505.58 213.438C510.073 214.6 514.573 216.562 517.491 220.169C520.409 223.777 521.274 229.339 518.493 233.054L522.486 229.503Z" fill="#2F2E41"/>
<path id="Vector_7" d="M490.147 152.77C470.52 152.767 451.429 159.182 435.785 171.037C420.142 182.891 408.803 199.535 403.497 218.433C398.192 237.33 399.21 257.443 406.397 275.708C413.585 293.973 426.547 309.387 443.308 319.6L443.888 319.94C444.368 320.23 444.848 320.51 445.328 320.78C446.138 321.26 446.947 321.72 447.777 322.16C448.337 322.45 448.897 322.75 449.458 323.03C455.704 326.219 462.307 328.656 469.127 330.29C470.538 330.63 471.947 330.94 473.388 331.2C478.913 332.247 484.524 332.773 490.147 332.77C491.567 332.77 492.978 332.74 494.388 332.67C496.368 332.58 498.328 332.424 500.268 332.2C502.618 331.94 504.938 331.587 507.228 331.14C511.853 330.25 516.4 328.996 520.828 327.39C521.388 327.18 521.947 326.97 522.498 326.76C524.007 326.18 525.491 325.56 526.947 324.9C528.547 324.18 530.124 323.414 531.678 322.6C547.245 314.448 560.112 301.952 568.717 286.63C568.757 286.55 568.808 286.47 568.848 286.39C573.439 278.152 576.696 269.238 578.498 259.98C581.027 246.948 580.644 233.517 577.375 220.65C574.107 207.783 568.034 195.797 559.591 185.552C551.148 175.307 540.544 167.055 528.539 161.388C516.533 155.721 503.423 152.778 490.148 152.77H490.147ZM567.208 285.22C567.127 285.36 567.058 285.5 566.978 285.63C558.544 300.726 545.858 313.009 530.498 320.95C528.967 321.75 527.411 322.5 525.828 323.2C524.518 323.79 523.178 324.35 521.828 324.87C521.257 325.09 520.678 325.31 520.098 325.51C516.272 326.908 512.352 328.03 508.368 328.87C505.412 329.5 502.424 329.97 499.417 330.28C497.567 330.48 495.687 330.62 493.797 330.69C492.587 330.74 491.368 330.77 490.147 330.77C484.705 330.777 479.275 330.271 473.928 329.26C470.675 328.66 467.459 327.872 464.297 326.9C459.481 325.412 454.801 323.515 450.308 321.23C449.788 320.96 449.268 320.69 448.757 320.41C448.027 320.02 447.288 319.62 446.567 319.19C446.027 318.89 445.487 318.57 444.957 318.25C444.647 318.07 444.337 317.88 444.027 317.69C429.332 308.666 417.609 295.525 410.314 279.899C403.019 264.272 400.472 246.848 402.99 229.788C405.507 212.727 412.978 196.781 424.475 183.928C435.973 171.075 450.991 161.88 467.667 157.484C484.343 153.088 501.942 153.685 518.281 159.201C534.621 164.716 548.981 174.908 559.582 188.51C570.182 202.113 576.555 218.529 577.911 235.721C579.266 252.913 575.545 270.124 567.207 285.22H567.208Z" fill="#3F3D56"/>
<path id="Vector_8" d="M469.907 191.46C469.435 186.492 463.348 183.433 458.589 184.934C453.83 186.435 450.705 191.227 449.76 196.127C449.306 198.191 449.263 200.324 449.635 202.404C450.006 204.484 450.785 206.471 451.926 208.249C454.331 211.712 458.752 213.872 462.876 212.993C467.583 211.99 470.844 207.394 471.777 202.672C472.71 197.951 471.784 193.083 470.858 188.36L469.907 191.46Z" fill="#2F2E41"/>
<path id="Vector_9" d="M536.889 198.557C536.417 193.589 530.331 190.53 525.571 192.031C520.812 193.532 517.687 198.324 516.743 203.224C516.288 205.288 516.246 207.421 516.617 209.501C516.989 211.581 517.767 213.568 518.908 215.346C521.314 218.809 525.735 220.969 529.858 220.09C534.565 219.087 537.826 214.491 538.759 209.769C539.692 205.048 538.766 200.18 537.841 195.457L536.889 198.557Z" fill="#2F2E41"/>
</g>
<g id="message1">
<path id="convo1" d="M334.584 278.739C333.961 278.738 333.345 278.608 332.776 278.356C332.207 278.103 331.696 277.735 331.277 277.275L281.655 223.141C281.092 222.528 280.408 222.039 279.646 221.704C278.884 221.368 278.061 221.195 277.229 221.194H15.0093C11.0299 221.189 7.21487 219.607 4.40105 216.793C1.58723 213.979 0.00446778 210.164 0 206.185V111.622C0.00446514 107.643 1.58723 103.828 4.40105 101.014C7.21487 98.2001 11.0299 96.6173 15.0093 96.6129H354.734C358.714 96.6173 362.529 98.2001 365.343 101.014C368.157 103.828 369.739 107.643 369.744 111.622V206.185C369.739 210.164 368.157 213.979 365.343 216.793C362.529 219.607 358.714 221.189 354.734 221.194H345.103C343.511 221.196 341.985 221.829 340.859 222.955C339.733 224.081 339.1 225.607 339.099 227.199V274.232C339.102 275.14 338.83 276.028 338.317 276.777C337.805 277.527 337.076 278.102 336.228 278.428C335.704 278.633 335.147 278.738 334.584 278.739V278.739Z" fill="white"/>
<path id="Vector_10" d="M334.584 278.739C333.961 278.738 333.345 278.608 332.776 278.356C332.207 278.103 331.696 277.735 331.277 277.275L281.655 223.141C281.092 222.528 280.408 222.039 279.646 221.704C278.884 221.368 278.061 221.195 277.229 221.194H15.0093C11.0299 221.189 7.21487 219.607 4.40105 216.793C1.58723 213.979 0.00446778 210.164 0 206.185V111.622C0.00446514 107.643 1.58723 103.828 4.40105 101.014C7.21487 98.2001 11.0299 96.6173 15.0093 96.6129H354.734C358.714 96.6173 362.529 98.2001 365.343 101.014C368.157 103.828 369.739 107.643 369.744 111.622V206.185C369.739 210.164 368.157 213.979 365.343 216.793C362.529 219.607 358.714 221.189 354.734 221.194H345.103C343.511 221.196 341.985 221.829 340.859 222.955C339.733 224.081 339.1 225.607 339.099 227.199V274.232C339.102 275.14 338.83 276.028 338.317 276.777C337.805 277.527 337.076 278.102 336.228 278.428C335.704 278.633 335.147 278.738 334.584 278.739V278.739ZM15.0093 98.6129C11.5602 98.6168 8.25349 99.9886 5.81462 102.428C3.37575 104.866 2.00389 108.173 2 111.622V206.185C2.0039 209.634 3.37577 212.94 5.81464 215.379C8.25351 217.818 11.5602 219.19 15.0093 219.194H277.229C278.338 219.195 279.436 219.426 280.451 219.873C281.467 220.32 282.379 220.973 283.129 221.79L332.751 275.923C333.092 276.295 333.537 276.555 334.028 276.669C334.519 276.783 335.033 276.747 335.503 276.564C335.973 276.381 336.377 276.061 336.661 275.645C336.946 275.229 337.098 274.736 337.099 274.232V227.199C337.101 225.077 337.945 223.042 339.446 221.541C340.946 220.04 342.981 219.196 345.103 219.194H354.734C358.184 219.19 361.49 217.818 363.929 215.379C366.368 212.94 367.74 209.634 367.744 206.185V111.622C367.74 108.173 366.368 104.866 363.929 102.428C361.49 99.9886 358.184 98.6168 354.734 98.6129H15.0093Z" fill="#3F3D56"/>
<path id="circle1" d="M36.816 138.327C44.0696 138.327 49.9497 132.447 49.9497 125.193C49.9497 117.94 44.0696 112.06 36.816 112.06C29.5625 112.06 23.6823 117.94 23.6823 125.193C23.6823 132.447 29.5625 138.327 36.816 138.327Z" fill="#22C55E"/>
<path id="text1" d="M29.1023 195V180.455H29.9901V187.308H38.7543V180.455H39.642V195H38.7543V188.132H29.9901V195H29.1023ZM47.7972 195.227C46.8124 195.227 45.9554 194.983 45.2262 194.496C44.497 194.008 43.9336 193.34 43.5359 192.493C43.1381 191.645 42.9393 190.679 42.9393 189.595C42.9393 188.506 43.1381 187.536 43.5359 186.683C43.9383 185.831 44.4899 185.159 45.1907 184.666C45.8915 184.174 46.6916 183.928 47.5913 183.928C48.2021 183.928 48.7797 184.051 49.3242 184.297C49.8735 184.538 50.3564 184.889 50.7731 185.348C51.1945 185.807 51.5236 186.361 51.7603 187.01C52.0018 187.659 52.1225 188.388 52.1225 189.197V189.737H43.4862V188.949H51.256C51.256 188.158 51.0951 187.446 50.7731 186.811C50.4511 186.177 50.0131 185.672 49.4592 185.298C48.9052 184.924 48.2826 184.737 47.5913 184.737C46.8668 184.737 46.2205 184.941 45.6523 185.348C45.0889 185.75 44.6415 186.295 44.31 186.982C43.9833 187.668 43.8129 188.435 43.7987 189.283V189.638C43.7987 190.547 43.9573 191.364 44.2745 192.088C44.5965 192.808 45.0558 193.378 45.6523 193.8C46.2489 194.216 46.9639 194.425 47.7972 194.425C48.3938 194.425 48.9028 194.325 49.3242 194.126C49.7504 193.923 50.0984 193.677 50.3683 193.388C50.6381 193.099 50.8417 192.82 50.979 192.55L51.7674 192.869C51.6017 193.234 51.3436 193.598 50.9933 193.963C50.6476 194.323 50.2073 194.624 49.6722 194.865C49.1419 195.107 48.5169 195.227 47.7972 195.227ZM55.4695 199.091C55.2517 199.091 55.0362 199.067 54.8232 199.02C54.6101 198.973 54.4183 198.911 54.2479 198.835L54.5036 198.075C54.9486 198.246 55.3511 198.307 55.7109 198.26C56.0755 198.213 56.3975 198.047 56.6768 197.763C56.9562 197.479 57.1929 197.062 57.3871 196.513L57.8842 195.149L53.8857 184.091H54.8161L58.282 193.885H58.353L61.8189 184.091H62.7493L58.147 196.854C57.9718 197.346 57.7517 197.758 57.4865 198.089C57.2214 198.421 56.9183 198.67 56.5774 198.835C56.2412 199.006 55.8719 199.091 55.4695 199.091ZM66.8065 180.455L66.7567 190.76H65.9045L65.8548 180.455H66.8065ZM66.3306 195.092C66.1175 195.092 65.9353 195.019 65.7837 194.872C65.637 194.721 65.5636 194.538 65.5636 194.325C65.5636 194.117 65.6393 193.937 65.7908 193.786C65.9424 193.634 66.1223 193.558 66.3306 193.558C66.5389 193.558 66.7189 193.634 66.8704 193.786C67.0219 193.937 67.0977 194.117 67.0977 194.325C67.0977 194.467 67.0621 194.598 66.9911 194.716C66.9248 194.83 66.8325 194.922 66.7141 194.993C66.6005 195.059 66.4727 195.092 66.3306 195.092ZM77.2805 187.926V195H76.4141V180.455H77.2805V185.817H77.3658C77.6214 185.249 78.0286 184.796 78.5874 184.46C79.1508 184.119 79.8255 183.949 80.6115 183.949C81.3454 183.949 81.9917 184.105 82.5504 184.418C83.1091 184.725 83.5447 185.168 83.8572 185.746C84.1745 186.319 84.3331 187.005 84.3331 187.805V195H83.4737V187.841C83.4737 186.908 83.1967 186.16 82.6428 185.597C82.0888 185.033 81.3572 184.751 80.4482 184.751C79.8374 184.751 79.2929 184.884 78.8146 185.149C78.3364 185.414 77.96 185.786 77.6854 186.264C77.4155 186.738 77.2805 187.292 77.2805 187.926ZM91.9734 195.227C91.0737 195.227 90.2736 194.986 89.5728 194.503C88.872 194.015 88.3204 193.345 87.918 192.493C87.5155 191.641 87.3143 190.67 87.3143 189.581C87.3143 188.487 87.5155 187.517 87.918 186.669C88.3204 185.817 88.872 185.147 89.5728 184.659C90.2736 184.171 91.0737 183.928 91.9734 183.928C92.873 183.928 93.6732 184.171 94.3739 184.659C95.0747 185.147 95.6263 185.817 96.0288 186.669C96.4312 187.521 96.6325 188.492 96.6325 189.581C96.6325 190.67 96.4312 191.641 96.0288 192.493C95.6263 193.345 95.0747 194.015 94.3739 194.503C93.6732 194.986 92.873 195.227 91.9734 195.227ZM91.9734 194.425C92.7357 194.425 93.4009 194.209 93.9691 193.778C94.542 193.348 94.9847 192.765 95.2972 192.031C95.6145 191.297 95.7731 190.481 95.7731 189.581C95.7731 188.681 95.6145 187.867 95.2972 187.138C94.98 186.404 94.5373 185.821 93.9691 185.391C93.4009 184.955 92.7357 184.737 91.9734 184.737C91.2111 184.737 90.5458 184.955 89.9776 185.391C89.4094 185.821 88.9667 186.404 88.6495 187.138C88.3323 187.867 88.1737 188.681 88.1737 189.581C88.1737 190.481 88.3299 191.297 88.6424 192.031C88.9596 192.765 89.4023 193.348 89.9705 193.778C90.5434 194.209 91.2111 194.425 91.9734 194.425ZM101.625 195L98.3583 184.091H99.2674L102.08 193.729H102.158L104.978 184.091H105.88L108.692 193.722H108.763L111.576 184.091H112.485L109.218 195H108.252L105.468 185.504H105.375L102.591 195H101.625ZM123.699 195.234C123.069 195.234 122.492 195.109 121.966 194.858C121.445 194.607 121.026 194.24 120.709 193.757C120.397 193.274 120.24 192.687 120.24 191.996C120.24 191.541 120.321 191.141 120.482 190.795C120.643 190.45 120.891 190.152 121.228 189.901C121.564 189.65 121.995 189.444 122.52 189.283C123.046 189.117 123.673 188.989 124.402 188.899C124.956 188.833 125.451 188.769 125.887 188.707C126.322 188.641 126.663 188.539 126.909 188.402C127.16 188.265 127.286 188.056 127.286 187.777V187.322C127.286 186.527 127.035 185.895 126.533 185.426C126.031 184.957 125.34 184.723 124.459 184.723C123.678 184.723 123.02 184.896 122.485 185.241C121.954 185.582 121.583 186.023 121.37 186.562L120.553 186.257C120.761 185.736 121.062 185.303 121.455 184.957C121.853 184.612 122.307 184.354 122.819 184.183C123.335 184.013 123.874 183.928 124.438 183.928C124.926 183.928 125.39 183.996 125.83 184.134C126.275 184.271 126.67 184.479 127.016 184.759C127.366 185.038 127.643 185.395 127.847 185.831C128.051 186.262 128.152 186.778 128.152 187.379V195H127.286V193.033H127.222C127.033 193.44 126.772 193.812 126.441 194.148C126.114 194.479 125.719 194.744 125.255 194.943C124.795 195.137 124.277 195.234 123.699 195.234ZM123.784 194.432C124.466 194.432 125.07 194.266 125.596 193.935C126.126 193.598 126.54 193.139 126.838 192.557C127.137 191.974 127.286 191.314 127.286 190.575V188.97C127.177 189.065 127.018 189.15 126.81 189.226C126.606 189.297 126.374 189.361 126.114 189.418C125.858 189.47 125.588 189.517 125.304 189.56C125.025 189.598 124.753 189.633 124.488 189.666C123.692 189.761 123.043 189.908 122.542 190.107C122.044 190.301 121.68 190.556 121.448 190.874C121.221 191.191 121.107 191.574 121.107 192.024C121.107 192.768 121.363 193.355 121.874 193.786C122.385 194.216 123.022 194.432 123.784 194.432ZM131.785 195V184.091H132.63V185.795H132.708C132.945 185.237 133.345 184.789 133.909 184.453C134.472 184.112 135.114 183.942 135.833 183.942C135.909 183.942 135.985 183.942 136.061 183.942C136.136 183.942 136.208 183.944 136.274 183.949V184.822C136.217 184.818 136.148 184.811 136.068 184.801C135.992 184.787 135.897 184.78 135.784 184.78C135.178 184.78 134.638 184.91 134.164 185.17C133.696 185.431 133.326 185.791 133.056 186.25C132.787 186.705 132.652 187.225 132.652 187.812V195H131.785ZM142.524 195.227C141.539 195.227 140.682 194.983 139.953 194.496C139.224 194.008 138.66 193.34 138.262 192.493C137.865 191.645 137.666 190.679 137.666 189.595C137.666 188.506 137.865 187.536 138.262 186.683C138.665 185.831 139.217 185.159 139.917 184.666C140.618 184.174 141.418 183.928 142.318 183.928C142.929 183.928 143.506 184.051 144.051 184.297C144.6 184.538 145.083 184.889 145.5 185.348C145.921 185.807 146.25 186.361 146.487 187.01C146.728 187.659 146.849 188.388 146.849 189.197V189.737H138.213V188.949H145.983C145.983 188.158 145.822 187.446 145.5 186.811C145.178 186.177 144.74 185.672 144.186 185.298C143.632 184.924 143.009 184.737 142.318 184.737C141.593 184.737 140.947 184.941 140.379 185.348C139.815 185.75 139.368 186.295 139.037 186.982C138.71 187.668 138.539 188.435 138.525 189.283V189.638C138.525 190.547 138.684 191.364 139.001 192.088C139.323 192.808 139.782 193.378 140.379 193.8C140.975 194.216 141.69 194.425 142.524 194.425C143.12 194.425 143.629 194.325 144.051 194.126C144.477 193.923 144.825 193.677 145.095 193.388C145.365 193.099 145.568 192.82 145.706 192.55L146.494 192.869C146.328 193.234 146.07 193.598 145.72 193.963C145.374 194.323 144.934 194.624 144.399 194.865C143.868 195.107 143.243 195.227 142.524 195.227ZM156.153 199.091C155.935 199.091 155.72 199.067 155.507 199.02C155.294 198.973 155.102 198.911 154.931 198.835L155.187 198.075C155.632 198.246 156.035 198.307 156.395 198.26C156.759 198.213 157.081 198.047 157.36 197.763C157.64 197.479 157.877 197.062 158.071 196.513L158.568 195.149L154.569 184.091H155.5L158.966 193.885H159.037L162.502 184.091H163.433L158.831 196.854C158.655 197.346 158.435 197.758 158.17 198.089C157.905 198.421 157.602 198.67 157.261 198.835C156.925 199.006 156.556 199.091 156.153 199.091ZM169.805 195.227C168.906 195.227 168.106 194.986 167.405 194.503C166.704 194.015 166.152 193.345 165.75 192.493C165.348 191.641 165.146 190.67 165.146 189.581C165.146 188.487 165.348 187.517 165.75 186.669C166.152 185.817 166.704 185.147 167.405 184.659C168.106 184.171 168.906 183.928 169.805 183.928C170.705 183.928 171.505 184.171 172.206 184.659C172.907 185.147 173.458 185.817 173.861 186.669C174.263 187.521 174.464 188.492 174.464 189.581C174.464 190.67 174.263 191.641 173.861 192.493C173.458 193.345 172.907 194.015 172.206 194.503C171.505 194.986 170.705 195.227 169.805 195.227ZM169.805 194.425C170.568 194.425 171.233 194.209 171.801 193.778C172.374 193.348 172.817 192.765 173.129 192.031C173.446 191.297 173.605 190.481 173.605 189.581C173.605 188.681 173.446 187.867 173.129 187.138C172.812 186.404 172.369 185.821 171.801 185.391C171.233 184.955 170.568 184.737 169.805 184.737C169.043 184.737 168.378 184.955 167.81 185.391C167.241 185.821 166.799 186.404 166.482 187.138C166.164 187.867 166.006 188.681 166.006 189.581C166.006 190.481 166.162 191.297 166.474 192.031C166.792 192.765 167.234 193.348 167.803 193.778C168.375 194.209 169.043 194.425 169.805 194.425ZM184.438 191.129V184.091H185.304V195H184.438V193.232H184.367C184.111 193.795 183.697 194.254 183.124 194.609C182.556 194.964 181.883 195.142 181.107 195.142C180.392 195.142 179.76 194.986 179.211 194.673C178.661 194.361 178.23 193.918 177.918 193.345C177.605 192.768 177.449 192.081 177.449 191.286V184.091H178.316V191.25C178.316 192.159 178.59 192.895 179.14 193.459C179.694 194.018 180.408 194.297 181.284 194.297C181.853 194.297 182.376 194.169 182.854 193.913C183.332 193.658 183.716 193.293 184.005 192.82C184.293 192.341 184.438 191.778 184.438 191.129ZM198.262 195.227C197.386 195.227 196.622 194.986 195.968 194.503C195.315 194.02 194.808 193.355 194.449 192.507C194.093 191.655 193.916 190.677 193.916 189.574C193.916 188.48 194.096 187.509 194.456 186.662C194.82 185.81 195.329 185.142 195.983 184.659C196.636 184.171 197.398 183.928 198.27 183.928C198.895 183.928 199.437 184.048 199.896 184.29C200.36 184.527 200.748 184.841 201.061 185.234C201.378 185.627 201.619 186.058 201.785 186.527H201.87V180.455H202.73V195H201.892V192.621H201.785C201.61 193.089 201.366 193.523 201.054 193.92C200.741 194.313 200.353 194.631 199.889 194.872C199.425 195.109 198.883 195.227 198.262 195.227ZM198.341 194.425C199.079 194.425 199.711 194.214 200.237 193.793C200.767 193.366 201.172 192.789 201.451 192.06C201.735 191.326 201.877 190.495 201.877 189.567C201.877 188.639 201.735 187.812 201.451 187.088C201.172 186.359 200.767 185.786 200.237 185.369C199.711 184.948 199.079 184.737 198.341 184.737C197.592 184.737 196.951 184.95 196.416 185.376C195.886 185.798 195.478 186.373 195.194 187.102C194.915 187.831 194.775 188.653 194.775 189.567C194.775 190.481 194.915 191.304 195.194 192.038C195.478 192.772 195.886 193.355 196.416 193.786C196.951 194.212 197.592 194.425 198.341 194.425ZM210.684 195.227C209.785 195.227 208.984 194.986 208.284 194.503C207.583 194.015 207.031 193.345 206.629 192.493C206.226 191.641 206.025 190.67 206.025 189.581C206.025 188.487 206.226 187.517 206.629 186.669C207.031 185.817 207.583 185.147 208.284 184.659C208.984 184.171 209.785 183.928 210.684 183.928C211.584 183.928 212.384 184.171 213.085 184.659C213.786 185.147 214.337 185.817 214.74 186.669C215.142 187.521 215.343 188.492 215.343 189.581C215.343 190.67 215.142 191.641 214.74 192.493C214.337 193.345 213.786 194.015 213.085 194.503C212.384 194.986 211.584 195.227 210.684 195.227ZM210.684 194.425C211.447 194.425 212.112 194.209 212.68 193.778C213.253 193.348 213.696 192.765 214.008 192.031C214.325 191.297 214.484 190.481 214.484 189.581C214.484 188.681 214.325 187.867 214.008 187.138C213.691 186.404 213.248 185.821 212.68 185.391C212.112 184.955 211.447 184.737 210.684 184.737C209.922 184.737 209.257 184.955 208.689 185.391C208.12 185.821 207.678 186.404 207.36 187.138C207.043 187.867 206.885 188.681 206.885 189.581C206.885 190.481 207.041 191.297 207.353 192.031C207.671 192.765 208.113 193.348 208.681 193.778C209.254 194.209 209.922 194.425 210.684 194.425ZM218.371 195V184.091H219.23V195H218.371ZM218.804 182.159C218.615 182.159 218.449 182.093 218.307 181.96C218.17 181.828 218.101 181.667 218.101 181.477C218.101 181.288 218.17 181.127 218.307 180.994C218.444 180.862 218.61 180.795 218.804 180.795C218.993 180.795 219.157 180.862 219.294 180.994C219.436 181.127 219.507 181.288 219.507 181.477C219.507 181.667 219.438 181.828 219.301 181.96C219.164 182.093 218.998 182.159 218.804 182.159ZM223.726 187.926V195H222.859V184.091H223.705V185.817H223.79C224.045 185.253 224.455 184.801 225.018 184.46C225.582 184.119 226.252 183.949 227.028 183.949C227.762 183.949 228.406 184.105 228.96 184.418C229.519 184.73 229.955 185.175 230.267 185.753C230.584 186.326 230.743 187.01 230.743 187.805V195H229.876V187.841C229.876 186.913 229.599 186.167 229.045 185.604C228.496 185.036 227.769 184.751 226.865 184.751C226.259 184.751 225.719 184.884 225.246 185.149C224.772 185.414 224.401 185.786 224.131 186.264C223.861 186.738 223.726 187.292 223.726 187.926ZM238.278 199.318C237.601 199.318 236.993 199.228 236.453 199.048C235.913 198.873 235.454 198.622 235.075 198.295C234.701 197.969 234.415 197.58 234.216 197.131L234.94 196.705C235.101 197.055 235.331 197.367 235.629 197.642C235.928 197.917 236.297 198.132 236.737 198.288C237.182 198.445 237.696 198.523 238.278 198.523C239.33 198.523 240.161 198.25 240.771 197.706C241.387 197.166 241.695 196.338 241.695 195.22V192.507H241.609C241.444 192.981 241.197 193.402 240.871 193.771C240.549 194.136 240.153 194.422 239.685 194.631C239.216 194.839 238.683 194.943 238.087 194.943C237.225 194.943 236.467 194.721 235.814 194.276C235.161 193.83 234.652 193.205 234.287 192.401C233.922 191.591 233.74 190.639 233.74 189.545C233.74 188.452 233.918 187.483 234.273 186.641C234.633 185.793 235.139 185.13 235.793 184.652C236.446 184.169 237.213 183.928 238.094 183.928C238.723 183.928 239.268 184.048 239.727 184.29C240.191 184.527 240.58 184.841 240.892 185.234C241.205 185.627 241.446 186.058 241.616 186.527H241.716V184.091H242.554V195.256C242.554 196.165 242.374 196.92 242.014 197.521C241.659 198.123 241.16 198.572 240.516 198.871C239.876 199.169 239.131 199.318 238.278 199.318ZM238.165 194.141C238.894 194.141 239.521 193.956 240.047 193.587C240.577 193.213 240.984 192.682 241.268 191.996C241.557 191.304 241.702 190.485 241.702 189.538C241.702 188.62 241.562 187.798 241.283 187.074C241.003 186.349 240.598 185.779 240.068 185.362C239.538 184.946 238.903 184.737 238.165 184.737C237.412 184.737 236.77 184.95 236.24 185.376C235.71 185.798 235.303 186.371 235.018 187.095C234.739 187.82 234.599 188.634 234.599 189.538C234.599 190.447 234.741 191.248 235.026 191.939C235.31 192.625 235.717 193.165 236.247 193.558C236.777 193.946 237.417 194.141 238.165 194.141ZM255.681 184.091V184.865H250.915V184.091H255.681ZM252.527 181.477H253.387V192.422C253.387 192.867 253.472 193.232 253.642 193.516C253.818 193.795 254.045 194.003 254.324 194.141C254.608 194.273 254.911 194.339 255.233 194.339C255.39 194.339 255.525 194.328 255.638 194.304C255.757 194.28 255.868 194.25 255.972 194.212L256.185 195C256.052 195.047 255.906 195.088 255.745 195.121C255.584 195.159 255.394 195.178 255.176 195.178C254.722 195.178 254.291 195.076 253.884 194.872C253.481 194.669 253.155 194.373 252.904 193.984C252.653 193.596 252.527 193.127 252.527 192.578V181.477ZM262.833 195.227C261.933 195.227 261.133 194.986 260.432 194.503C259.731 194.015 259.18 193.345 258.777 192.493C258.375 191.641 258.174 190.67 258.174 189.581C258.174 188.487 258.375 187.517 258.777 186.669C259.18 185.817 259.731 185.147 260.432 184.659C261.133 184.171 261.933 183.928 262.833 183.928C263.732 183.928 264.533 184.171 265.233 184.659C265.934 185.147 266.486 185.817 266.888 186.669C267.291 187.521 267.492 188.492 267.492 189.581C267.492 190.67 267.291 191.641 266.888 192.493C266.486 193.345 265.934 194.015 265.233 194.503C264.533 194.986 263.732 195.227 262.833 195.227ZM262.833 194.425C263.595 194.425 264.26 194.209 264.828 193.778C265.401 193.348 265.844 192.765 266.157 192.031C266.474 191.297 266.632 190.481 266.632 189.581C266.632 188.681 266.474 187.867 266.157 187.138C265.839 186.404 265.397 185.821 264.828 185.391C264.26 184.955 263.595 184.737 262.833 184.737C262.07 184.737 261.405 184.955 260.837 185.391C260.269 185.821 259.826 186.404 259.509 187.138C259.192 187.867 259.033 188.681 259.033 189.581C259.033 190.481 259.189 191.297 259.502 192.031C259.819 192.765 260.262 193.348 260.83 193.778C261.403 194.209 262.07 194.425 262.833 194.425ZM274.219 195.227C273.344 195.227 272.579 194.986 271.925 194.503C271.272 194.02 270.765 193.355 270.406 192.507C270.05 191.655 269.873 190.677 269.873 189.574C269.873 188.48 270.053 187.509 270.413 186.662C270.777 185.81 271.286 185.142 271.94 184.659C272.593 184.171 273.355 183.928 274.227 183.928C274.852 183.928 275.394 184.048 275.853 184.29C276.317 184.527 276.705 184.841 277.018 185.234C277.335 185.627 277.576 186.058 277.742 186.527H277.827V180.455H278.687V195H277.849V192.621H277.742C277.567 193.089 277.323 193.523 277.011 193.92C276.698 194.313 276.31 194.631 275.846 194.872C275.382 195.109 274.84 195.227 274.219 195.227ZM274.298 194.425C275.036 194.425 275.668 194.214 276.194 193.793C276.724 193.366 277.129 192.789 277.408 192.06C277.692 191.326 277.835 190.495 277.835 189.567C277.835 188.639 277.692 187.812 277.408 187.088C277.129 186.359 276.724 185.786 276.194 185.369C275.668 184.948 275.036 184.737 274.298 184.737C273.549 184.737 272.908 184.95 272.373 185.376C271.843 185.798 271.435 186.373 271.151 187.102C270.872 187.831 270.732 188.653 270.732 189.567C270.732 190.481 270.872 191.304 271.151 192.038C271.435 192.772 271.843 193.355 272.373 193.786C272.908 194.212 273.549 194.425 274.298 194.425ZM285.477 195.234C284.847 195.234 284.269 195.109 283.744 194.858C283.223 194.607 282.804 194.24 282.487 193.757C282.174 193.274 282.018 192.687 282.018 191.996C282.018 191.541 282.098 191.141 282.259 190.795C282.42 190.45 282.669 190.152 283.005 189.901C283.341 189.65 283.772 189.444 284.298 189.283C284.823 189.117 285.451 188.989 286.18 188.899C286.734 188.833 287.228 188.769 287.664 188.707C288.1 188.641 288.441 188.539 288.687 188.402C288.938 188.265 289.063 188.056 289.063 187.777V187.322C289.063 186.527 288.812 185.895 288.31 185.426C287.808 184.957 287.117 184.723 286.237 184.723C285.455 184.723 284.797 184.896 284.262 185.241C283.732 185.582 283.36 186.023 283.147 186.562L282.33 186.257C282.539 185.736 282.839 185.303 283.232 184.957C283.63 184.612 284.085 184.354 284.596 184.183C285.112 184.013 285.652 183.928 286.215 183.928C286.703 183.928 287.167 183.996 287.607 184.134C288.052 184.271 288.448 184.479 288.793 184.759C289.144 185.038 289.421 185.395 289.624 185.831C289.828 186.262 289.93 186.778 289.93 187.379V195H289.063V193.033H288.999C288.81 193.44 288.549 193.812 288.218 194.148C287.891 194.479 287.496 194.744 287.032 194.943C286.573 195.137 286.054 195.234 285.477 195.234ZM285.562 194.432C286.244 194.432 286.847 194.266 287.373 193.935C287.903 193.598 288.317 193.139 288.616 192.557C288.914 191.974 289.063 191.314 289.063 190.575V188.97C288.954 189.065 288.796 189.15 288.587 189.226C288.384 189.297 288.152 189.361 287.891 189.418C287.636 189.47 287.366 189.517 287.082 189.56C286.802 189.598 286.53 189.633 286.265 189.666C285.469 189.761 284.821 189.908 284.319 190.107C283.822 190.301 283.457 190.556 283.225 190.874C282.998 191.191 282.884 191.574 282.884 192.024C282.884 192.768 283.14 193.355 283.651 193.786C284.163 194.216 284.799 194.432 285.562 194.432ZM293.868 199.091C293.65 199.091 293.435 199.067 293.222 199.02C293.009 198.973 292.817 198.911 292.646 198.835L292.902 198.075C293.347 198.246 293.75 198.307 294.109 198.26C294.474 198.213 294.796 198.047 295.075 197.763C295.355 197.479 295.591 197.062 295.786 196.513L296.283 195.149L292.284 184.091H293.214L296.68 193.885H296.751L300.217 184.091H301.148L296.545 196.854C296.37 197.346 296.15 197.758 295.885 198.089C295.62 198.421 295.317 198.67 294.976 198.835C294.64 199.006 294.27 199.091 293.868 199.091ZM306.064 190.76V190.064C306.069 189.472 306.14 188.975 306.277 188.572C306.415 188.17 306.632 187.812 306.931 187.5C307.229 187.183 307.62 186.863 308.103 186.541C308.515 186.257 308.851 185.98 309.111 185.71C309.372 185.436 309.561 185.149 309.679 184.851C309.802 184.553 309.864 184.226 309.864 183.871C309.864 183.317 309.731 182.829 309.466 182.408C309.206 181.982 308.851 181.65 308.401 181.413C307.956 181.172 307.454 181.051 306.895 181.051C306.337 181.051 305.83 181.177 305.375 181.428C304.921 181.679 304.556 182.031 304.282 182.486C304.007 182.94 303.863 183.475 303.848 184.091H302.946C302.961 183.338 303.141 182.673 303.486 182.095C303.837 181.518 304.308 181.068 304.9 180.746C305.491 180.419 306.157 180.256 306.895 180.256C307.639 180.256 308.299 180.414 308.877 180.732C309.454 181.044 309.907 181.475 310.233 182.024C310.565 182.573 310.73 183.198 310.73 183.899C310.73 184.339 310.659 184.744 310.517 185.114C310.375 185.478 310.153 185.824 309.85 186.151C309.547 186.477 309.154 186.809 308.671 187.145C308.23 187.448 307.882 187.737 307.627 188.011C307.376 188.286 307.198 188.584 307.094 188.906C306.99 189.228 306.938 189.614 306.938 190.064V190.76H306.064ZM306.519 195.092C306.306 195.092 306.123 195.019 305.972 194.872C305.825 194.721 305.752 194.538 305.752 194.325C305.752 194.117 305.825 193.937 305.972 193.786C306.123 193.634 306.306 193.558 306.519 193.558C306.732 193.558 306.912 193.634 307.059 193.786C307.21 193.937 307.286 194.117 307.286 194.325C307.286 194.467 307.25 194.598 307.179 194.716C307.113 194.83 307.021 194.922 306.902 194.993C306.789 195.059 306.661 195.092 306.519 195.092Z" fill="black"/>
<path id="name1" d="M28.517 152.545H33.0682L37.875 164.273H38.0795L42.8864 152.545H47.4375V170H43.858V158.639H43.7131L39.196 169.915H36.7585L32.2415 158.597H32.0966V170H28.517V152.545ZM50.4098 170V156.909H54.0405V170H50.4098ZM52.2337 155.222C51.6939 155.222 51.2308 155.043 50.8445 154.685C50.4638 154.321 50.2734 153.886 50.2734 153.381C50.2734 152.881 50.4638 152.452 50.8445 152.094C51.2308 151.73 51.6939 151.548 52.2337 151.548C52.7734 151.548 53.2337 151.73 53.6143 152.094C54.0007 152.452 54.1939 152.881 54.1939 153.381C54.1939 153.886 54.0007 154.321 53.6143 154.685C53.2337 155.043 52.7734 155.222 52.2337 155.222ZM62.8636 170.256C61.5227 170.256 60.3693 169.972 59.4034 169.403C58.4432 168.83 57.7045 168.034 57.1875 167.017C56.6761 166 56.4205 164.83 56.4205 163.506C56.4205 162.165 56.679 160.989 57.196 159.977C57.7188 158.96 58.4602 158.168 59.4205 157.599C60.3807 157.026 61.5227 156.739 62.8466 156.739C63.9886 156.739 64.9886 156.946 65.8466 157.361C66.7045 157.776 67.3835 158.358 67.8835 159.108C68.3835 159.858 68.6591 160.739 68.7102 161.75H65.2841C65.1875 161.097 64.9318 160.571 64.517 160.173C64.108 159.77 63.571 159.568 62.9062 159.568C62.3438 159.568 61.8523 159.722 61.4318 160.028C61.017 160.33 60.6932 160.77 60.4602 161.349C60.2273 161.929 60.1108 162.631 60.1108 163.455C60.1108 164.29 60.2244 165 60.4517 165.585C60.6847 166.17 61.0114 166.616 61.4318 166.923C61.8523 167.23 62.3438 167.384 62.9062 167.384C63.321 167.384 63.6932 167.298 64.0227 167.128C64.358 166.957 64.6335 166.71 64.8494 166.386C65.071 166.057 65.2159 165.662 65.2841 165.202H68.7102C68.6534 166.202 68.3807 167.082 67.892 167.844C67.4091 168.599 66.7415 169.19 65.8892 169.616C65.0369 170.043 64.0284 170.256 62.8636 170.256ZM74.7678 170.247C73.9325 170.247 73.1882 170.102 72.5348 169.812C71.8814 169.517 71.3643 169.082 70.9837 168.509C70.6087 167.929 70.4212 167.207 70.4212 166.344C70.4212 165.616 70.5547 165.006 70.8217 164.511C71.0888 164.017 71.4524 163.619 71.9126 163.318C72.3729 163.017 72.8956 162.79 73.4808 162.636C74.0717 162.483 74.6911 162.375 75.3388 162.312C76.1001 162.233 76.7138 162.159 77.1797 162.091C77.6456 162.017 77.9837 161.909 78.1939 161.767C78.4041 161.625 78.5092 161.415 78.5092 161.136V161.085C78.5092 160.545 78.3388 160.128 77.9979 159.832C77.6626 159.537 77.1854 159.389 76.5661 159.389C75.9126 159.389 75.3928 159.534 75.0064 159.824C74.62 160.108 74.3643 160.466 74.2393 160.898L70.8814 160.625C71.0518 159.83 71.3871 159.142 71.8871 158.562C72.3871 157.977 73.032 157.528 73.8217 157.216C74.6172 156.898 75.5376 156.739 76.5831 156.739C77.3104 156.739 78.0064 156.824 78.6712 156.994C79.3416 157.165 79.9354 157.429 80.4524 157.787C80.9751 158.145 81.3871 158.605 81.6882 159.168C81.9893 159.724 82.1399 160.392 82.1399 161.17V170H78.6967V168.185H78.5945C78.3842 168.594 78.103 168.955 77.7507 169.267C77.3984 169.574 76.9751 169.815 76.4808 169.991C75.9865 170.162 75.4155 170.247 74.7678 170.247ZM75.8075 167.741C76.3416 167.741 76.8132 167.636 77.2223 167.426C77.6314 167.21 77.9524 166.92 78.1854 166.557C78.4183 166.193 78.5348 165.781 78.5348 165.321V163.932C78.4212 164.006 78.2649 164.074 78.0661 164.136C77.8729 164.193 77.6541 164.247 77.4098 164.298C77.1655 164.344 76.9212 164.386 76.6768 164.426C76.4325 164.46 76.2109 164.491 76.0121 164.52C75.5859 164.582 75.2138 164.682 74.8956 164.818C74.5774 164.955 74.3303 165.139 74.1541 165.372C73.978 165.599 73.8899 165.884 73.8899 166.224C73.8899 166.719 74.0689 167.097 74.4268 167.358C74.7905 167.614 75.2507 167.741 75.8075 167.741ZM88.5874 162.432V170H84.9567V152.545H88.4851V159.219H88.6385C88.9339 158.446 89.4112 157.841 90.0703 157.403C90.7294 156.96 91.5561 156.739 92.5504 156.739C93.4595 156.739 94.2521 156.938 94.9283 157.335C95.6101 157.727 96.1385 158.293 96.5135 159.031C96.8942 159.764 97.0817 160.642 97.076 161.665V170H93.4453V162.312C93.451 161.506 93.2464 160.878 92.8317 160.429C92.4226 159.98 91.8487 159.756 91.1101 159.756C90.6158 159.756 90.1783 159.861 89.7976 160.071C89.4226 160.281 89.1271 160.588 88.9112 160.991C88.701 161.389 88.593 161.869 88.5874 162.432Z" fill="black"/>
</g>
<g id="user2">
<path id="Vector_11" d="M449.178 628.71C435.246 637.631 419.105 642.496 402.564 642.759C386.023 643.022 369.736 638.674 355.527 630.2C358.027 625.548 361.194 621.286 364.928 617.55C370.689 611.762 377.7 607.371 385.423 604.715C393.146 602.059 401.375 601.209 409.478 602.229C417.581 603.25 425.342 606.114 432.165 610.603C438.988 615.091 444.692 621.084 448.837 628.12C448.947 628.31 449.067 628.51 449.178 628.71Z" fill="#22C55E"/>
<path id="Vector_12" d="M398.443 580.89C422.854 580.89 442.644 561.1 442.644 536.688C442.644 512.277 422.854 492.487 398.443 492.487C374.031 492.487 354.241 512.277 354.241 536.688C354.241 561.1 374.031 580.89 398.443 580.89Z" fill="#2F2E41"/>
<path id="Vector_13" d="M431.333 567.866C440.048 551.923 434.188 531.934 418.246 523.219C402.303 514.504 382.314 520.363 373.599 536.306C364.884 552.248 370.744 572.237 386.686 580.952C402.629 589.667 422.618 583.808 431.333 567.866Z" fill="#FFB8B8"/>
<path id="Vector_14" d="M367.898 531.393C375.416 536.574 384.338 539.332 393.469 539.296C390.212 541.554 386.504 543.079 382.601 543.767C394.74 546.371 407.287 546.441 419.454 543.974C422.159 543.54 424.769 542.644 427.169 541.324C428.365 540.656 429.408 539.744 430.228 538.646C431.048 537.549 431.629 536.292 431.931 534.955C432.74 530.336 429.141 526.14 425.4 523.311C419.673 519.047 413.07 516.109 406.069 514.71C399.067 513.311 391.842 513.486 384.916 515.222C380.394 516.391 375.864 518.366 372.926 521.997C369.989 525.629 369.119 531.228 371.917 534.968L367.898 531.393Z" fill="#2F2E41"/>
<path id="Vector_15" d="M401.147 643.77C379.5 643.764 358.581 635.952 342.227 621.769C325.873 607.586 315.181 587.982 312.112 566.553C309.043 545.124 313.804 523.307 325.52 505.104C337.236 486.901 355.122 473.532 375.898 467.45C396.673 461.368 418.945 462.981 438.628 471.992C458.311 481.003 474.085 496.809 483.057 516.51C492.028 536.211 493.596 558.486 487.473 579.249C481.349 600.013 467.945 617.872 449.718 629.552C435.224 638.846 418.365 643.781 401.147 643.77V643.77ZM401.147 465.77C383.74 465.769 366.724 470.929 352.25 480.599C337.775 490.269 326.494 504.014 319.832 520.096C313.169 536.177 311.426 553.873 314.822 570.946C318.217 588.019 326.599 603.701 338.908 616.01C351.217 628.319 366.899 636.701 383.972 640.096C401.044 643.492 418.741 641.748 434.822 635.086C450.904 628.424 464.649 617.142 474.319 602.668C483.989 588.194 489.149 571.177 489.147 553.77C489.121 530.439 479.841 508.072 463.344 491.574C446.846 475.077 424.478 465.797 401.147 465.77V465.77Z" fill="#3F3D56"/>
</g>
<g id="message2">
<path id="convo2" d="M555.067 599.428C554.219 599.102 553.49 598.527 552.978 597.777C552.465 597.028 552.193 596.14 552.196 595.232V548.199C552.195 546.607 551.561 545.081 550.436 543.955C549.31 542.829 547.784 542.196 546.192 542.194H536.56C532.581 542.189 528.766 540.607 525.952 537.793C523.138 534.979 521.556 531.164 521.551 527.185V432.622C521.556 428.643 523.138 424.828 525.952 422.014C528.766 419.2 532.581 417.617 536.56 417.613H876.286C880.265 417.617 884.08 419.2 886.894 422.014C889.708 424.828 891.29 428.643 891.295 432.622V527.185C891.29 531.164 889.708 534.979 886.894 537.793C884.08 540.607 880.265 542.189 876.286 542.194H614.066C613.234 542.195 612.411 542.368 611.649 542.704C610.887 543.039 610.203 543.528 609.64 544.141L560.018 598.274C559.599 598.735 559.088 599.103 558.519 599.356C557.95 599.608 557.334 599.738 556.711 599.739C556.148 599.738 555.591 599.633 555.067 599.428V599.428Z" fill="white"/>
<path id="Vector_16" d="M555.067 599.428C554.219 599.102 553.49 598.527 552.978 597.777C552.465 597.028 552.193 596.14 552.196 595.232V548.199C552.195 546.607 551.561 545.081 550.436 543.955C549.31 542.829 547.784 542.196 546.192 542.194H536.56C532.581 542.189 528.766 540.607 525.952 537.793C523.138 534.979 521.556 531.164 521.551 527.185V432.622C521.556 428.643 523.138 424.828 525.952 422.014C528.766 419.2 532.581 417.617 536.56 417.613H876.286C880.265 417.617 884.08 419.2 886.894 422.014C889.708 424.828 891.29 428.643 891.295 432.622V527.185C891.29 531.164 889.708 534.979 886.894 537.793C884.08 540.607 880.265 542.189 876.286 542.194H614.066C613.234 542.195 612.411 542.368 611.649 542.704C610.887 543.039 610.203 543.528 609.64 544.141L560.018 598.274C559.599 598.735 559.088 599.103 558.519 599.356C557.95 599.608 557.334 599.738 556.711 599.739C556.148 599.738 555.591 599.633 555.067 599.428V599.428ZM536.56 419.613C533.111 419.617 529.805 420.989 527.366 423.428C524.927 425.866 523.555 429.173 523.551 432.622V527.185C523.555 530.634 524.927 533.94 527.366 536.379C529.805 538.818 533.111 540.19 536.56 540.194H546.192C548.314 540.196 550.349 541.041 551.849 542.541C553.35 544.042 554.194 546.077 554.196 548.199V595.232C554.197 595.736 554.349 596.229 554.633 596.645C554.918 597.061 555.322 597.381 555.792 597.564C556.262 597.747 556.776 597.783 557.267 597.669C557.758 597.555 558.203 597.295 558.544 596.923L608.166 542.79C608.916 541.973 609.828 541.32 610.844 540.873C611.859 540.426 612.957 540.195 614.066 540.194H876.286C879.735 540.19 883.041 538.818 885.48 536.379C887.919 533.94 889.291 530.634 889.295 527.185V432.622C889.291 429.173 887.919 425.866 885.48 423.428C883.041 420.989 879.735 419.617 876.286 419.613H536.56Z" fill="#3F3D56"/>
<path id="circle2" d="M563.816 458.327C571.07 458.327 576.95 452.447 576.95 445.193C576.95 437.94 571.07 432.06 563.816 432.06C556.562 432.06 550.682 437.94 550.682 445.193C550.682 452.447 556.562 458.327 563.816 458.327Z" fill="#22C55E"/>
<path id="text2" d="M557.99 501.455V516H557.102V501.455H557.99ZM562.733 501.455V502.733C562.733 503.121 562.662 503.536 562.52 503.976C562.382 504.411 562.179 504.835 561.909 505.247C561.644 505.654 561.322 506.009 560.943 506.312L560.467 505.837C560.884 505.439 561.225 504.963 561.49 504.409C561.76 503.85 561.895 503.294 561.895 502.74V501.455H562.733ZM564.785 516V505.091H565.63V506.739H565.716C565.924 506.189 566.284 505.754 566.795 505.432C567.306 505.11 567.922 504.949 568.642 504.949C569.432 504.949 570.069 505.138 570.552 505.517C571.04 505.896 571.39 506.41 571.603 507.058H571.681C571.895 506.419 572.276 505.908 572.825 505.524C573.379 505.141 574.061 504.949 574.87 504.949C575.926 504.949 576.731 505.283 577.285 505.95C577.844 506.613 578.123 507.522 578.123 508.678V516H577.257V508.678C577.257 507.768 577.039 507.054 576.603 506.533C576.168 506.012 575.529 505.751 574.686 505.751C573.786 505.751 573.095 506.033 572.612 506.597C572.129 507.16 571.887 507.877 571.887 508.749V516H571.021V508.621C571.021 507.773 570.808 507.084 570.382 506.554C569.956 506.019 569.316 505.751 568.464 505.751C567.886 505.751 567.387 505.884 566.966 506.149C566.549 506.414 566.225 506.779 565.993 507.243C565.765 507.707 565.652 508.24 565.652 508.841V516H564.785ZM591.463 505.091V505.865H586.626V505.091H591.463ZM588.217 516V503.393C588.217 502.844 588.343 502.375 588.594 501.987C588.845 501.599 589.174 501.303 589.581 501.099C589.993 500.896 590.436 500.794 590.909 500.794C591.16 500.794 591.373 500.815 591.548 500.858C591.728 500.896 591.884 500.941 592.017 500.993L591.761 501.76C591.652 501.722 591.534 501.689 591.406 501.661C591.283 501.632 591.136 501.618 590.966 501.618C590.417 501.618 589.964 501.786 589.609 502.122C589.254 502.458 589.077 502.927 589.077 503.528L589.07 516H588.217ZM594.203 516V505.091H595.062V516H594.203ZM594.636 503.159C594.447 503.159 594.281 503.093 594.139 502.96C594.002 502.828 593.933 502.667 593.933 502.477C593.933 502.288 594.002 502.127 594.139 501.994C594.276 501.862 594.442 501.795 594.636 501.795C594.825 501.795 594.989 501.862 595.126 501.994C595.268 502.127 595.339 502.288 595.339 502.477C595.339 502.667 595.27 502.828 595.133 502.96C594.996 503.093 594.83 503.159 594.636 503.159ZM599.558 508.926V516H598.691V505.091H599.537V506.817H599.622C599.877 506.253 600.287 505.801 600.85 505.46C601.414 505.119 602.084 504.949 602.86 504.949C603.594 504.949 604.238 505.105 604.792 505.418C605.351 505.73 605.787 506.175 606.099 506.753C606.416 507.326 606.575 508.01 606.575 508.805V516H605.708V508.841C605.708 507.913 605.431 507.167 604.877 506.604C604.328 506.036 603.601 505.751 602.697 505.751C602.091 505.751 601.551 505.884 601.078 506.149C600.604 506.414 600.233 506.786 599.963 507.264C599.693 507.738 599.558 508.292 599.558 508.926ZM614.43 516.227C613.445 516.227 612.588 515.983 611.859 515.496C611.13 515.008 610.566 514.34 610.169 513.493C609.771 512.645 609.572 511.679 609.572 510.595C609.572 509.506 609.771 508.536 610.169 507.683C610.571 506.831 611.123 506.159 611.824 505.666C612.524 505.174 613.324 504.928 614.224 504.928C614.835 504.928 615.413 505.051 615.957 505.297C616.506 505.538 616.989 505.889 617.406 506.348C617.827 506.807 618.156 507.361 618.393 508.01C618.635 508.659 618.755 509.388 618.755 510.197V510.737H610.119V509.949H617.889C617.889 509.158 617.728 508.446 617.406 507.811C617.084 507.177 616.646 506.672 616.092 506.298C615.538 505.924 614.915 505.737 614.224 505.737C613.5 505.737 612.853 505.941 612.285 506.348C611.722 506.75 611.274 507.295 610.943 507.982C610.616 508.668 610.446 509.435 610.431 510.283V510.638C610.431 511.547 610.59 512.364 610.907 513.088C611.229 513.808 611.689 514.378 612.285 514.8C612.882 515.216 613.597 515.425 614.43 515.425C615.027 515.425 615.536 515.325 615.957 515.126C616.383 514.923 616.731 514.677 617.001 514.388C617.271 514.099 617.475 513.82 617.612 513.55L618.4 513.869C618.234 514.234 617.976 514.598 617.626 514.963C617.28 515.323 616.84 515.624 616.305 515.865C615.775 516.107 615.15 516.227 614.43 516.227ZM628.23 508.926V516H627.363V501.455H628.23V506.817H628.315C628.571 506.249 628.978 505.796 629.537 505.46C630.1 505.119 630.775 504.949 631.561 504.949C632.295 504.949 632.941 505.105 633.5 505.418C634.058 505.725 634.494 506.168 634.806 506.746C635.124 507.319 635.282 508.005 635.282 508.805V516H634.423V508.841C634.423 507.908 634.146 507.16 633.592 506.597C633.038 506.033 632.306 505.751 631.397 505.751C630.787 505.751 630.242 505.884 629.764 506.149C629.286 506.414 628.909 506.786 628.635 507.264C628.365 507.738 628.23 508.292 628.23 508.926ZM642.923 516.227C642.023 516.227 641.223 515.986 640.522 515.503C639.821 515.015 639.27 514.345 638.867 513.493C638.465 512.641 638.263 511.67 638.263 510.581C638.263 509.487 638.465 508.517 638.867 507.669C639.27 506.817 639.821 506.147 640.522 505.659C641.223 505.171 642.023 504.928 642.923 504.928C643.822 504.928 644.622 505.171 645.323 505.659C646.024 506.147 646.576 506.817 646.978 507.669C647.38 508.521 647.582 509.492 647.582 510.581C647.582 511.67 647.38 512.641 646.978 513.493C646.576 514.345 646.024 515.015 645.323 515.503C644.622 515.986 643.822 516.227 642.923 516.227ZM642.923 515.425C643.685 515.425 644.35 515.209 644.918 514.778C645.491 514.348 645.934 513.765 646.246 513.031C646.564 512.297 646.722 511.481 646.722 510.581C646.722 509.681 646.564 508.867 646.246 508.138C645.929 507.404 645.487 506.821 644.918 506.391C644.35 505.955 643.685 505.737 642.923 505.737C642.16 505.737 641.495 505.955 640.927 506.391C640.359 506.821 639.916 507.404 639.599 508.138C639.281 508.867 639.123 509.681 639.123 510.581C639.123 511.481 639.279 512.297 639.592 513.031C639.909 513.765 640.352 514.348 640.92 514.778C641.493 515.209 642.16 515.425 642.923 515.425ZM652.575 516L649.308 505.091H650.217L653.029 514.729H653.107L655.927 505.091H656.829L659.641 514.722H659.712L662.525 505.091H663.434L660.167 516H659.201L656.417 506.504H656.325L653.54 516H652.575ZM674.648 516.234C674.019 516.234 673.441 516.109 672.915 515.858C672.395 515.607 671.976 515.24 671.658 514.757C671.346 514.274 671.19 513.687 671.19 512.996C671.19 512.541 671.27 512.141 671.431 511.795C671.592 511.45 671.841 511.152 672.177 510.901C672.513 510.65 672.944 510.444 673.469 510.283C673.995 510.117 674.622 509.989 675.352 509.899C675.906 509.833 676.4 509.769 676.836 509.707C677.272 509.641 677.612 509.539 677.859 509.402C678.11 509.265 678.235 509.056 678.235 508.777V508.322C678.235 507.527 677.984 506.895 677.482 506.426C676.98 505.957 676.289 505.723 675.408 505.723C674.627 505.723 673.969 505.896 673.434 506.241C672.904 506.582 672.532 507.023 672.319 507.562L671.502 507.257C671.71 506.736 672.011 506.303 672.404 505.957C672.802 505.612 673.256 505.354 673.768 505.183C674.284 505.013 674.824 504.928 675.387 504.928C675.875 504.928 676.339 504.996 676.779 505.134C677.224 505.271 677.62 505.479 677.965 505.759C678.316 506.038 678.593 506.395 678.796 506.831C679 507.262 679.102 507.778 679.102 508.379V516H678.235V514.033H678.171C677.982 514.44 677.721 514.812 677.39 515.148C677.063 515.479 676.668 515.744 676.204 515.943C675.745 516.137 675.226 516.234 674.648 516.234ZM674.734 515.432C675.415 515.432 676.019 515.266 676.545 514.935C677.075 514.598 677.489 514.139 677.788 513.557C678.086 512.974 678.235 512.314 678.235 511.575V509.97C678.126 510.065 677.968 510.15 677.759 510.226C677.556 510.297 677.324 510.361 677.063 510.418C676.808 510.47 676.538 510.517 676.254 510.56C675.974 510.598 675.702 510.633 675.437 510.666C674.641 510.761 673.993 510.908 673.491 511.107C672.994 511.301 672.629 511.556 672.397 511.874C672.17 512.191 672.056 512.574 672.056 513.024C672.056 513.768 672.312 514.355 672.823 514.786C673.335 515.216 673.971 515.432 674.734 515.432ZM683.04 516V501.455H683.899V507.527H683.984C684.155 507.058 684.396 506.627 684.709 506.234C685.021 505.841 685.41 505.527 685.874 505.29C686.338 505.048 686.88 504.928 687.5 504.928C688.376 504.928 689.141 505.171 689.794 505.659C690.447 506.142 690.954 506.81 691.314 507.662C691.674 508.509 691.854 509.48 691.854 510.574C691.854 511.677 691.674 512.655 691.314 513.507C690.954 514.355 690.45 515.02 689.801 515.503C689.152 515.986 688.388 516.227 687.507 516.227C686.887 516.227 686.345 516.109 685.881 515.872C685.417 515.631 685.028 515.313 684.716 514.92C684.403 514.523 684.16 514.089 683.984 513.621H683.885V516H683.04ZM683.892 510.567C683.892 511.495 684.032 512.326 684.311 513.06C684.595 513.789 685.002 514.366 685.533 514.793C686.063 515.214 686.697 515.425 687.436 515.425C688.184 515.425 688.823 515.212 689.354 514.786C689.884 514.355 690.289 513.772 690.568 513.038C690.852 512.304 690.994 511.481 690.994 510.567C690.994 509.653 690.852 508.831 690.568 508.102C690.289 507.373 689.884 506.798 689.354 506.376C688.823 505.95 688.184 505.737 687.436 505.737C686.697 505.737 686.063 505.948 685.533 506.369C685.002 506.786 684.595 507.359 684.311 508.088C684.032 508.812 683.892 509.639 683.892 510.567ZM698.899 516.227C698 516.227 697.199 515.986 696.499 515.503C695.798 515.015 695.246 514.345 694.844 513.493C694.441 512.641 694.24 511.67 694.24 510.581C694.24 509.487 694.441 508.517 694.844 507.669C695.246 506.817 695.798 506.147 696.499 505.659C697.199 505.171 698 504.928 698.899 504.928C699.799 504.928 700.599 505.171 701.3 505.659C702 506.147 702.552 506.817 702.955 507.669C703.357 508.521 703.558 509.492 703.558 510.581C703.558 511.67 703.357 512.641 702.955 513.493C702.552 514.345 702 515.015 701.3 515.503C700.599 515.986 699.799 516.227 698.899 516.227ZM698.899 515.425C699.661 515.425 700.327 515.209 700.895 514.778C701.468 514.348 701.911 513.765 702.223 513.031C702.54 512.297 702.699 511.481 702.699 510.581C702.699 509.681 702.54 508.867 702.223 508.138C701.906 507.404 701.463 506.821 700.895 506.391C700.327 505.955 699.661 505.737 698.899 505.737C698.137 505.737 697.472 505.955 696.903 506.391C696.335 506.821 695.893 507.404 695.575 508.138C695.258 508.867 695.099 509.681 695.099 510.581C695.099 511.481 695.256 512.297 695.568 513.031C695.885 513.765 696.328 514.348 696.896 514.778C697.469 515.209 698.137 515.425 698.899 515.425ZM713.532 512.129V505.091H714.398V516H713.532V514.232H713.461C713.205 514.795 712.791 515.254 712.218 515.609C711.65 515.964 710.977 516.142 710.201 516.142C709.486 516.142 708.854 515.986 708.304 515.673C707.755 515.361 707.324 514.918 707.012 514.345C706.699 513.768 706.543 513.081 706.543 512.286V505.091H707.409V512.25C707.409 513.159 707.684 513.895 708.233 514.459C708.787 515.018 709.502 515.297 710.378 515.297C710.946 515.297 711.47 515.169 711.948 514.913C712.426 514.658 712.81 514.293 713.098 513.82C713.387 513.341 713.532 512.778 713.532 512.129ZM721.845 505.091V505.865H717.079V505.091H721.845ZM718.691 502.477H719.551V513.422C719.551 513.867 719.636 514.232 719.806 514.516C719.982 514.795 720.209 515.003 720.488 515.141C720.772 515.273 721.075 515.339 721.397 515.339C721.554 515.339 721.689 515.328 721.802 515.304C721.921 515.28 722.032 515.25 722.136 515.212L722.349 516C722.217 516.047 722.07 516.088 721.909 516.121C721.748 516.159 721.558 516.178 721.341 516.178C720.886 516.178 720.455 516.076 720.048 515.872C719.645 515.669 719.319 515.373 719.068 514.984C718.817 514.596 718.691 514.127 718.691 513.578V502.477ZM731.38 520.091C731.162 520.091 730.946 520.067 730.733 520.02C730.52 519.973 730.328 519.911 730.158 519.835L730.414 519.075C730.859 519.246 731.261 519.307 731.621 519.26C731.986 519.213 732.308 519.047 732.587 518.763C732.866 518.479 733.103 518.062 733.297 517.513L733.794 516.149L729.796 505.091H730.726L734.192 514.885H734.263L737.729 505.091H738.659L734.057 517.854C733.882 518.346 733.662 518.758 733.397 519.089C733.132 519.421 732.828 519.67 732.488 519.835C732.151 520.006 731.782 520.091 731.38 520.091ZM745.032 516.227C744.132 516.227 743.332 515.986 742.631 515.503C741.931 515.015 741.379 514.345 740.977 513.493C740.574 512.641 740.373 511.67 740.373 510.581C740.373 509.487 740.574 508.517 740.977 507.669C741.379 506.817 741.931 506.147 742.631 505.659C743.332 505.171 744.132 504.928 745.032 504.928C745.932 504.928 746.732 505.171 747.433 505.659C748.133 506.147 748.685 506.817 749.087 507.669C749.49 508.521 749.691 509.492 749.691 510.581C749.691 511.67 749.49 512.641 749.087 513.493C748.685 514.345 748.133 515.015 747.433 515.503C746.732 515.986 745.932 516.227 745.032 516.227ZM745.032 515.425C745.794 515.425 746.46 515.209 747.028 514.778C747.601 514.348 748.043 513.765 748.356 513.031C748.673 512.297 748.832 511.481 748.832 510.581C748.832 509.681 748.673 508.867 748.356 508.138C748.039 507.404 747.596 506.821 747.028 506.391C746.46 505.955 745.794 505.737 745.032 505.737C744.27 505.737 743.604 505.955 743.036 506.391C742.468 506.821 742.025 507.404 741.708 508.138C741.391 508.867 741.232 509.681 741.232 510.581C741.232 511.481 741.388 512.297 741.701 513.031C742.018 513.765 742.461 514.348 743.029 514.778C743.602 515.209 744.27 515.425 745.032 515.425ZM759.664 512.129V505.091H760.531V516H759.664V514.232H759.593C759.338 514.795 758.923 515.254 758.35 515.609C757.782 515.964 757.11 516.142 756.333 516.142C755.618 516.142 754.986 515.986 754.437 515.673C753.888 515.361 753.457 514.918 753.145 514.345C752.832 513.768 752.676 513.081 752.676 512.286V505.091H753.542V512.25C753.542 513.159 753.817 513.895 754.366 514.459C754.92 515.018 755.635 515.297 756.511 515.297C757.079 515.297 757.602 515.169 758.081 514.913C758.559 514.658 758.942 514.293 759.231 513.82C759.52 513.341 759.664 512.778 759.664 512.129ZM766.33 511.76V511.064C766.335 510.472 766.406 509.975 766.543 509.572C766.68 509.17 766.898 508.812 767.196 508.5C767.495 508.183 767.885 507.863 768.368 507.541C768.78 507.257 769.116 506.98 769.377 506.71C769.637 506.436 769.827 506.149 769.945 505.851C770.068 505.553 770.13 505.226 770.13 504.871C770.13 504.317 769.997 503.829 769.732 503.408C769.471 502.982 769.116 502.65 768.667 502.413C768.221 502.172 767.72 502.051 767.161 502.051C766.602 502.051 766.096 502.177 765.641 502.428C765.186 502.679 764.822 503.031 764.547 503.486C764.273 503.94 764.128 504.475 764.114 505.091H763.212C763.226 504.338 763.406 503.673 763.752 503.095C764.102 502.518 764.573 502.068 765.165 501.746C765.757 501.419 766.422 501.256 767.161 501.256C767.904 501.256 768.565 501.414 769.142 501.732C769.72 502.044 770.172 502.475 770.499 503.024C770.83 503.573 770.996 504.198 770.996 504.899C770.996 505.339 770.925 505.744 770.783 506.114C770.641 506.478 770.418 506.824 770.115 507.151C769.812 507.477 769.419 507.809 768.936 508.145C768.496 508.448 768.148 508.737 767.892 509.011C767.641 509.286 767.464 509.584 767.36 509.906C767.256 510.228 767.203 510.614 767.203 511.064V511.76H766.33ZM766.784 516.092C766.571 516.092 766.389 516.019 766.238 515.872C766.091 515.721 766.017 515.538 766.017 515.325C766.017 515.117 766.091 514.937 766.238 514.786C766.389 514.634 766.571 514.558 766.784 514.558C766.998 514.558 767.177 514.634 767.324 514.786C767.476 514.937 767.551 515.117 767.551 515.325C767.551 515.467 767.516 515.598 767.445 515.716C767.379 515.83 767.286 515.922 767.168 515.993C767.054 516.059 766.926 516.092 766.784 516.092Z" fill="black"/>
<path id="name2" d="M559.526 491H555.571L561.597 473.545H566.352L572.369 491H568.415L564.043 477.534H563.906L559.526 491ZM559.278 484.139H568.619V487.02H559.278V484.139ZM578.033 483.432V491H574.402V477.909H577.862V480.219H578.016C578.305 479.457 578.791 478.855 579.473 478.412C580.155 477.963 580.982 477.739 581.953 477.739C582.862 477.739 583.655 477.938 584.331 478.335C585.007 478.733 585.533 479.301 585.908 480.04C586.283 480.773 586.47 481.648 586.47 482.665V491H582.839V483.312C582.845 482.511 582.641 481.886 582.226 481.438C581.811 480.983 581.24 480.756 580.513 480.756C580.024 480.756 579.592 480.861 579.217 481.071C578.848 481.281 578.558 481.588 578.348 481.991C578.143 482.389 578.038 482.869 578.033 483.432ZM594.156 491.213C593.161 491.213 592.261 490.957 591.454 490.446C590.653 489.929 590.016 489.17 589.545 488.17C589.079 487.165 588.846 485.932 588.846 484.472C588.846 482.972 589.087 481.724 589.57 480.73C590.053 479.73 590.695 478.983 591.496 478.489C592.303 477.989 593.187 477.739 594.147 477.739C594.88 477.739 595.491 477.864 595.979 478.114C596.474 478.358 596.871 478.665 597.173 479.034C597.479 479.398 597.712 479.756 597.871 480.108H597.982V473.545H601.604V491H598.025V488.903H597.871C597.701 489.267 597.46 489.628 597.147 489.986C596.84 490.338 596.44 490.631 595.945 490.864C595.457 491.097 594.86 491.213 594.156 491.213ZM595.306 488.324C595.891 488.324 596.386 488.165 596.789 487.847C597.198 487.523 597.511 487.071 597.727 486.491C597.948 485.912 598.059 485.233 598.059 484.455C598.059 483.676 597.951 483 597.735 482.426C597.519 481.852 597.207 481.409 596.798 481.097C596.388 480.784 595.891 480.628 595.306 480.628C594.71 480.628 594.207 480.79 593.798 481.114C593.388 481.437 593.079 481.886 592.869 482.46C592.658 483.034 592.553 483.699 592.553 484.455C592.553 485.216 592.658 485.889 592.869 486.474C593.085 487.054 593.394 487.509 593.798 487.838C594.207 488.162 594.71 488.324 595.306 488.324ZM604.589 491V477.909H608.109V480.193H608.246C608.484 479.381 608.885 478.767 609.447 478.352C610.01 477.932 610.658 477.722 611.391 477.722C611.572 477.722 611.768 477.733 611.979 477.756C612.189 477.778 612.374 477.81 612.533 477.849V481.071C612.362 481.02 612.126 480.974 611.825 480.935C611.524 480.895 611.249 480.875 610.999 480.875C610.464 480.875 609.987 480.991 609.567 481.224C609.152 481.452 608.822 481.77 608.578 482.179C608.339 482.588 608.22 483.06 608.22 483.594V491H604.589ZM619.766 491.256C618.42 491.256 617.261 490.983 616.289 490.438C615.323 489.886 614.579 489.108 614.056 488.102C613.533 487.091 613.272 485.895 613.272 484.514C613.272 483.168 613.533 481.986 614.056 480.969C614.579 479.952 615.315 479.159 616.263 478.591C617.218 478.023 618.337 477.739 619.621 477.739C620.485 477.739 621.289 477.878 622.033 478.156C622.783 478.429 623.437 478.841 623.994 479.392C624.556 479.943 624.994 480.636 625.306 481.472C625.619 482.301 625.775 483.273 625.775 484.386V485.384H614.721V483.134H622.357C622.357 482.611 622.244 482.148 622.016 481.744C621.789 481.341 621.474 481.026 621.07 480.798C620.673 480.565 620.21 480.449 619.681 480.449C619.13 480.449 618.641 480.577 618.215 480.832C617.795 481.082 617.465 481.42 617.227 481.847C616.988 482.267 616.866 482.736 616.86 483.253V485.392C616.86 486.04 616.979 486.599 617.218 487.071C617.462 487.543 617.806 487.906 618.249 488.162C618.692 488.418 619.218 488.545 619.826 488.545C620.229 488.545 620.599 488.489 620.934 488.375C621.269 488.261 621.556 488.091 621.795 487.864C622.033 487.636 622.215 487.358 622.34 487.028L625.698 487.25C625.528 488.057 625.178 488.761 624.65 489.364C624.127 489.96 623.451 490.426 622.621 490.761C621.798 491.091 620.846 491.256 619.766 491.256ZM630.633 491L627.07 477.909H630.744L632.772 486.705H632.891L635.005 477.909H638.61L640.758 486.653H640.869L642.863 477.909H646.528L642.974 491H639.13L636.88 482.767H636.718L634.468 491H630.633Z" fill="black"/>
</g>
<path id="Vector_17" d="M554.644 608.38C568.177 608.38 579.147 607.163 579.147 605.661C579.147 604.159 568.177 602.941 554.644 602.941C541.11 602.941 530.14 604.159 530.14 605.661C530.14 607.163 541.11 608.38 554.644 608.38Z" fill="#F2F2F2"/>
<path id="Vector_18" d="M335.644 288.381C349.177 288.381 360.147 287.163 360.147 285.661C360.147 284.159 349.177 282.941 335.644 282.941C322.11 282.941 311.14 284.159 311.14 285.661C311.14 287.163 322.11 288.381 335.644 288.381Z" fill="#F2F2F2"/>
</g>
<defs>
<clipPath id="clip0_2_2">
<rect width="891.295" height="745.194" fill="white"/>
</clipPath>
</defs>
</svg>
