<svg xmlns="http://www.w3.org/2000/svg" xmlns:xlink="http://www.w3.org/1999/xlink" width="500" zoomAndPan="magnify" viewBox="0 0 375 374.999991" height="500" preserveAspectRatio="xMidYMid meet" version="1.0"><defs><clipPath id="id1"><path d="M 59 5.796875 L 374.691406 5.796875 L 374.691406 217 L 59 217 Z M 59 5.796875 " clip-rule="nonzero"/></clipPath><clipPath id="id2"><path d="M 0 81 L 317 81 L 317 369.742188 L 0 369.742188 Z M 0 81 " clip-rule="nonzero"/></clipPath></defs><g clip-path="url(#id1)"><path fill="#84ffb1" d="M 374.230469 84.238281 L 374.230469 146.136719 C 374.230469 177.382812 356.011719 204.363281 329.636719 216.972656 L 329.636719 160.128906 C 329.636719 109.753906 288.730469 68.753906 238.457031 68.753906 L 78.734375 68.753906 C 71.996094 68.753906 65.429688 69.492188 59.105469 70.890625 C 65.414062 33.925781 97.546875 5.796875 136.234375 5.796875 L 295.957031 5.796875 C 339.183594 5.796875 374.230469 40.910156 374.230469 84.238281 Z M 374.230469 84.238281 " fill-opacity="1" fill-rule="nonzero"/></g><g clip-path="url(#id2)"><path fill="#22c55e" d="M 238.457031 81.6875 L 78.71875 81.6875 C 35.503906 81.6875 0.457031 116.816406 0.457031 160.128906 L 0.457031 222.027344 C 0.457031 265.355469 35.503906 300.46875 78.71875 300.46875 L 85.636719 300.46875 L 85.636719 369.730469 L 95.546875 359.796875 C 133.445312 321.808594 184.855469 300.46875 238.445312 300.46875 C 281.671875 300.46875 316.707031 265.34375 316.707031 222.027344 L 316.707031 160.128906 C 316.71875 116.816406 281.683594 81.6875 238.457031 81.6875 Z M 238.457031 81.6875 " fill-opacity="1" fill-rule="nonzero"/></g><path fill="#ffffff" d="M 163.914062 210.230469 L 201.777344 146.335938 L 179.59375 146.335938 L 163.914062 173.433594 L 163.914062 173.445312 L 148.257812 146.335938 L 126.050781 146.335938 Z M 163.914062 210.230469 " fill-opacity="1" fill-rule="nonzero"/><path fill="#ffffff" d="M 207.660156 146.363281 L 163.914062 220.183594 L 120.167969 146.363281 L 96.152344 146.363281 L 163.914062 263.769531 L 231.675781 146.363281 Z M 207.660156 146.363281 " fill-opacity="1" fill-rule="nonzero"/></svg>